<?xml version="1.0" encoding="UTF-8" standalone="no"?>
<svg
   xmlns:dc="http://purl.org/dc/elements/1.1/"
   xmlns:cc="http://creativecommons.org/ns#"
   xmlns:rdf="http://www.w3.org/1999/02/22-rdf-syntax-ns#"
   xmlns:svg="http://www.w3.org/2000/svg"
   xmlns="http://www.w3.org/2000/svg"
   version="1.1"
   id="svg2"
   viewBox="0 0 51.999999 38.999998"
   height="11.006666mm"
   width="14.675555mm">
  <defs
     id="defs4" />
  <metadata
     id="metadata7">
    <rdf:RDF>
      <cc:Work
         rdf:about="">
        <dc:format>image/svg+xml</dc:format>
        <dc:type
           rdf:resource="http://purl.org/dc/dcmitype/StillImage" />
        <dc:title></dc:title>
      </cc:Work>
    </rdf:RDF>
  </metadata>
  <g
     transform="translate(-7.4542583,-8.0667412)"
     id="layer1">
    <path
       id="path4149"
       d="m 7.4542583,27.566741 0,-19.4999998 25.9999997,0 26,0 0,19.4999998 0,19.5 -26,0 -25.9999997,0 0,-19.5 z m 38.3124597,9.33627 c -5.10797,-5.10797 -5.19116,-5.14577 -7.70291,-3.5 -3.15673,2.06836 -6.96868,2.14085 -8.60955,0.16373 -1.96315,-2.36545 -3.24102,-1.83927 -8.5,3.5 l -4.92482,5 17.45051,0 17.4505,0 -5.16373,-5.16373 z m -23.31246,-8.97893 c 0,-0.39481 -2.23284,-3.11173 -4.96188,-6.03759 l -4.96188,-5.31975 -0.0381,10.96241 -0.0381,10.96241 5,-4.92482 c 2.75,-2.70865 5,-5.24784 5,-5.64266 z m 31.80099,-6.05442 -0.30099,-5.12405 -4.74227,5.56101 -4.74227,5.56101 4.74227,5.28323 4.74227,5.28324 0.30099,-5.72019 c 0.16555,-3.14611 0.16555,-8.02602 0,-10.84425 z m -11.80099,-0.30292 8.45584,-8.5 -17.45584,0 -17.45584,0 8.45584,8.5 c 4.65071,4.675 8.70071,8.5 9,8.5 0.29929,0 4.34929,-3.825 9,-8.5 z"
       style="fill:#ffffff" />
    <path
       id="path4147"
       d=""
       style="fill:#000000" />
  </g>
</svg>
