<?xml version="1.0" encoding="UTF-8" standalone="no"?>
<svg
   xmlns:dc="http://purl.org/dc/elements/1.1/"
   xmlns:cc="http://creativecommons.org/ns#"
   xmlns:rdf="http://www.w3.org/1999/02/22-rdf-syntax-ns#"
   xmlns:svg="http://www.w3.org/2000/svg"
   xmlns="http://www.w3.org/2000/svg"
   version="1.1"
   id="svg4206"
   viewBox="0 0 167.26237 50.822747"
   height="14.343308mm"
   width="47.205158mm">
  <defs
     id="defs4208" />
  <metadata
     id="metadata4211">
    <rdf:RDF>
      <cc:Work
         rdf:about="">
        <dc:format>image/svg+xml</dc:format>
        <dc:type
           rdf:resource="http://purl.org/dc/dcmitype/StillImage" />
        <dc:title></dc:title>
      </cc:Work>
    </rdf:RDF>
  </metadata>
  <g
     transform="translate(-1270.4794,-868.59556)"
     id="layer1">
    <path
       id="path4225"
       d="m 1270.4794,918.51287 c 0,-0.51881 2.025,-11.62021 4.5,-24.66977 2.475,-13.04956 4.5,-23.88814 4.5,-24.08573 0,-0.19759 1.575,-0.35925 3.5,-0.35925 1.925,0 3.5,0.42741 3.5,0.94981 0,0.95703 -6.5449,35.61449 -7.5161,39.80019 -0.5134,2.21312 -0.3649,2.25 9.0604,2.25 l 9.5824,0 -0.3133,3.25 -0.3134,3.25 -13.25,0.27903 c -7.8329,0.16494 -13.25,-0.10664 -13.25,-0.66428 z m 39.1492,-0.81122 c -1.8429,-0.90802 -4.5429,-3.45241 -6,-5.65421 -2.3779,-3.59335 -2.6492,-4.93445 -2.6492,-13.09732 0,-8.24298 0.3048,-9.71317 3.2568,-15.70951 5.1581,-10.47773 14.1245,-15.67617 24.7322,-14.33906 10.6627,1.34403 16.0224,8.44248 15.8536,20.99657 -0.1668,12.40078 -5.935,23.1879 -14.6571,27.41021 -5.4065,2.61724 -15.6253,2.81296 -20.5363,0.39332 z m 16.9202,-5.83941 c 6.8779,-3.55673 11.585,-14.55919 10.7153,-25.04643 -0.5191,-6.25966 -3.0635,-9.69452 -8.5136,-11.49325 -4.0808,-1.34676 -10.609,0.67746 -14.0716,4.36318 -5.2585,5.59749 -8.4529,18.38454 -6.2557,25.04199 2.51,7.60542 10.8595,10.89193 18.1256,7.13451 z m 32.2467,5.66018 c -15.9268,-7.48896 -12.7619,-35.91434 5.0557,-45.40738 3.4722,-1.84998 5.7486,-2.20085 14.326,-2.20819 6.0816,-0.005 10.6418,0.4344 11.2979,1.08914 1.671,1.66764 -0.8565,6.69032 -2.9238,5.81023 -3.8305,-1.6307 -12.2329,-1.61832 -16.5342,0.0243 -8.9712,3.42615 -15.6171,15.219 -13.9933,24.8305 1.3454,7.96336 9.2427,12.93758 17.9475,11.30454 3.7048,-0.69501 3.7688,-0.81159 5.3932,-9.81749 l 0.8567,-4.75 -4.9875,0 c -4.6843,0 -4.9509,-0.13682 -4.3846,-2.25 0.3317,-1.2375 0.6091,-2.5875 0.6166,-3 0.01,-0.4125 3.869,-0.75 8.5811,-0.75 7.6813,0 8.5162,0.181 8.0725,1.75 -0.2722,0.9625 -1.3148,6.40674 -2.3168,12.09831 -1.4172,8.04947 -2.2528,10.5789 -3.7615,11.38633 -1.0668,0.5709 -5.792,1.22227 -10.5006,1.44748 -7.0153,0.33554 -9.3164,0.0543 -12.7449,-1.55782 z m 44.1861,0.3003 c -7.4547,-3.887 -9.9788,-9.63018 -9.31,-21.18319 0.8139,-14.05994 8.4063,-24.50623 19.7973,-27.23889 14.6477,-3.51393 24.4105,4.69073 24.2714,20.39766 -0.1109,12.52529 -5.7992,23.26154 -14.5754,27.51003 -5.3292,2.5798 -15.7145,2.84448 -20.1833,0.51439 z m 16.5672,-5.96048 c 6.8779,-3.55673 11.585,-14.55919 10.7153,-25.04643 -0.7757,-9.35374 -7.8884,-14.1774 -16.2159,-10.99711 -5.2309,1.9977 -7.8378,4.67258 -10.5672,10.84287 -4.5165,10.21024 -3.1974,21.93356 2.8366,25.21076 3.5094,1.90606 9.5347,1.90146 13.2312,-0.0101 z"
       style="fill:#ffffff" />
  </g>
</svg>
